999
dxflib 3.17.0.0
  0
SECTION
  2
HEADER
  9
$ACADVER
  1
AC1015
  9
$HANDSEED
  5
FFFF
  9
$DIMADEC
 70
0
  9
$DIMASZ
 40
1.5
  9
$DIMAUNIT
 70
0
  9
$DIMAZIN
 70
2
  9
$DIMDEC
 70
4
  9
$DIMDLI
 40
3.0
  9
$DIMDSEP
 70
46
  9
$DIMEXE
 40
0.75
  9
$DIMEXO
 40
0.375
  9
$DIMGAP
 40
0.375
  9
$DIMLUNIT
 70
5
  9
$DIMSCALE
 40
1.0
  9
$DIMTSZ
 40
0.0
  9
$DIMTXT
 40
1.5
  9
$DIMZIN
 70
8
  9
$DWGCODEPAGE
  3
ANSI_1252
  9
$INSUNITS
 70
1
  9
$LTSCALE
 40
1.0
  9
$MAXACTVP
 70
64
  9
$MEASUREMENT
 70
0
  9
$MIRRTEXT
 70
0
  9
$PDMODE
 70
0
  9
$PDSIZE
 40
0.0
  0
ENDSEC
  0
SECTION
  2
TABLES
  0
TABLE
  2
VPORT
  5
8
100
AcDbSymbolTable
 70
1
  0
VPORT
  5
30
100
AcDbSymbolTableRecord
100
AcDbViewportTableRecord
  2
*Active
 70
0
 10
0.0
 20
0.0
 11
1.0
 21
1.0
 12
286.3055555555554861
 22
148.5
 13
0.0
 23
0.0
 14
10.0
 24
10.0
 15
10.0
 25
10.0
 16
0.0
 26
0.0
 36
1.0
 17
0.0
 27
0.0
 37
0.0
 40
297.0
 41
1.92798353909465
 42
50.0
 43
0.0
 44
0.0
 50
0.0
 51
0.0
 71
0
 72
100
 73
1
 74
3
 75
1
 76
1
 77
0
 78
0
281
0
 65
1
110
0.0
120
0.0
130
0.0
111
1.0
121
0.0
131
0.0
112
0.0
122
1.0
132
0.0
 79
0
146
0.0
  0
ENDTAB
  0
TABLE
  2
LTYPE
  5
5
100
AcDbSymbolTable
 70
41
  0
LTYPE
  5
16
100
AcDbSymbolTableRecord
100
AcDbLinetypeTableRecord
  2
Continuous
 70
0
  3
Solid line
 72
65
 73
0
 40
0.0
  0
LTYPE
  5
31
100
AcDbSymbolTableRecord
100
AcDbLinetypeTableRecord
  2
DOT
 70
0
  3
Dot . . . . . . . . . . . . . . . . . . . . . . . .
 72
65
 73
2
 40
6.3499999999999996
 49
0.1
 74
0
 49
-6.25
 74
0
  0
LTYPE
  5
32
100
AcDbSymbolTableRecord
100
AcDbLinetypeTableRecord
  2
DASHDOT
 70
0
  3
Dash dot __ . __ . __ . __ . __ . __ . __ . __
 72
65
 73
4
 40
25.4000000000000021
 49
12.6999999999999993
 74
0
 49
-6.2999999999999998
 74
0
 49
0.1
 74
0
 49
-6.2999999999999998
 74
0
  0
LTYPE
  5
33
100
AcDbSymbolTableRecord
100
AcDbLinetypeTableRecord
  2
BORDER
 70
0
  3
Border __ __ . __ __ . __ __ . __ __ . __ __ .
 72
65
 73
6
 40
44.4499999999999957
 49
12.6999999999999993
 74
0
 49
-6.3499999999999996
 74
0
 49
12.6999999999999993
 74
0
 49
-6.2999999999999998
 74
0
 49
0.1
 74
0
 49
-6.2999999999999998
 74
0
  0
LTYPE
  5
34
100
AcDbSymbolTableRecord
100
AcDbLinetypeTableRecord
  2
ACAD_ISO13W100
 70
0
  3
ISO double-dash double-dot __ __ . . __ __ . . _
 72
65
 73
8
 40
36.0000000000000071
 49
12.0
 74
0
 49
-3.0
 74
0
 49
12.0
 74
0
 49
-2.9500000000000002
 74
0
 49
0.1
 74
0
 49
-2.9000000000000004
 74
0
 49
0.1
 74
0
 49
-2.9500000000000002
 74
0
  0
LTYPE
  5
14
100
AcDbSymbolTableRecord
100
AcDbLinetypeTableRecord
  2
BYBLOCK
 70
0
  3

 72
65
 73
0
 40
0.0
  0
LTYPE
  5
35
100
AcDbSymbolTableRecord
100
AcDbLinetypeTableRecord
  2
PHANTOM2
 70
0
  3
Phantom (.5x) ___ _ _ ___ _ _ ___ _ _ ___ _ _
 72
65
 73
6
 40
31.7500000000000036
 49
15.875
 74
0
 49
-3.1749999999999998
 74
0
 49
3.1749999999999998
 74
0
 49
-3.1749999999999998
 74
0
 49
3.1749999999999998
 74
0
 49
-3.1749999999999998
 74
0
  0
LTYPE
  5
36
100
AcDbSymbolTableRecord
100
AcDbLinetypeTableRecord
  2
ACAD_ISO09W100
 70
0
  3
ISO long-dash double-short-dash ____ __ __ ____
 72
65
 73
6
 40
45.0
 49
24.0
 74
0
 49
-3.0
 74
0
 49
6.0
 74
0
 49
-3.0
 74
0
 49
6.0
 74
0
 49
-3.0
 74
0
  0
LTYPE
  5
37
100
AcDbSymbolTableRecord
100
AcDbLinetypeTableRecord
  2
CENTER2
 70
0
  3
Center (.5x) ___ _ ___ _ ___ _ ___ _ ___ _ ___
 72
65
 73
4
 40
28.5750000000000028
 49
19.0500000000000007
 74
0
 49
-3.1749999999999998
 74
0
 49
3.1749999999999998
 74
0
 49
-3.1749999999999998
 74
0
  0
LTYPE
  5
38
100
AcDbSymbolTableRecord
100
AcDbLinetypeTableRecord
  2
DASHEDX2
 70
0
  3
Dashed (2x) ____  ____  ____  ____  ____  ___
 72
65
 73
2
 40
38.0999999999999943
 49
25.3999999999999986
 74
0
 49
-12.6999999999999993
 74
0
  0
LTYPE
  5
15
100
AcDbSymbolTableRecord
100
AcDbLinetypeTableRecord
  2
BYLAYER
 70
0
  3

 72
65
 73
0
 40
0.0
  0
LTYPE
  5
39
100
AcDbSymbolTableRecord
100
AcDbLinetypeTableRecord
  2
ACAD_ISO03W100
 70
0
  3
ISO dash space __    __    __    __    __    __
 72
65
 73
2
 40
30.0
 49
12.0
 74
0
 49
-18.0
 74
0
  0
LTYPE
  5
3A
100
AcDbSymbolTableRecord
100
AcDbLinetypeTableRecord
  2
DOT2
 70
0
  3
Dot (.5x) ........................................
 72
65
 73
2
 40
3.1749999999999998
 49
0.1
 74
0
 49
-3.0749999999999997
 74
0
  0
LTYPE
  5
3B
100
AcDbSymbolTableRecord
100
AcDbLinetypeTableRecord
  2
HIDDEN2
 70
0
  3
Hidden (.5x) _ _ _ _ _ _ _ _ _ _ _ _ _ _ _ _ _ 
 72
65
 73
2
 40
4.7624999999999993
 49
3.1749999999999998
 74
0
 49
-1.5874999999999999
 74
0
  0
LTYPE
  5
3C
100
AcDbSymbolTableRecord
100
AcDbLinetypeTableRecord
  2
CENTER
 70
0
  3
Center ____ _ ____ _ ____ _ ____ _ ____ _ ____
 72
65
 73
4
 40
50.8000000000000043
 49
31.75
 74
0
 49
-6.3499999999999996
 74
0
 49
6.3499999999999996
 74
0
 49
-6.3499999999999996
 74
0
  0
LTYPE
  5
3D
100
AcDbSymbolTableRecord
100
AcDbLinetypeTableRecord
  2
CENTERX2
 70
0
  3
Center (2x) ________  __  ________  __  _____
 72
65
 73
4
 40
101.6000000000000085
 49
63.5
 74
0
 49
-12.6999999999999993
 74
0
 49
12.6999999999999993
 74
0
 49
-12.6999999999999993
 74
0
  0
LTYPE
  5
3E
100
AcDbSymbolTableRecord
100
AcDbLinetypeTableRecord
  2
ACAD_ISO11W100
 70
0
  3
ISO double-dash dot __ __ . __ __ . __ __ . __ _
 72
65
 73
6
 40
33.0
 49
12.0
 74
0
 49
-3.0
 74
0
 49
12.0
 74
0
 49
-2.9500000000000002
 74
0
 49
0.1
 74
0
 49
-2.9500000000000002
 74
0
  0
LTYPE
  5
3F
100
AcDbSymbolTableRecord
100
AcDbLinetypeTableRecord
  2
ACAD_ISO02W100
 70
0
  3
ISO dash __ __ __ __ __ __ __ __ __ __ __ __ __
 72
65
 73
2
 40
15.0
 49
12.0
 74
0
 49
-3.0
 74
0
  0
LTYPE
  5
40
100
AcDbSymbolTableRecord
100
AcDbLinetypeTableRecord
  2
ACAD_ISO08W100
 70
0
  3
ISO long-dash short-dash ____ __ ____ __ ____ _
 72
65
 73
4
 40
36.0
 49
24.0
 74
0
 49
-3.0
 74
0
 49
6.0
 74
0
 49
-3.0
 74
0
  0
LTYPE
  5
41
100
AcDbSymbolTableRecord
100
AcDbLinetypeTableRecord
  2
HIDDEN
 70
0
  3
Hidden __ __ __ __ __ __ __ __ __ __ __ __ __ __
 72
65
 73
2
 40
9.5249999999999986
 49
6.3499999999999996
 74
0
 49
-3.1749999999999998
 74
0
  0
LTYPE
  5
42
100
AcDbSymbolTableRecord
100
AcDbLinetypeTableRecord
  2
DASHED2
 70
0
  3
Dashed (.5x) _ _ _ _ _ _ _ _ _ _ _ _ _ _ _ _ _ 
 72
65
 73
2
 40
9.5249999999999986
 49
6.3499999999999996
 74
0
 49
-3.1749999999999998
 74
0
  0
LTYPE
  5
43
100
AcDbSymbolTableRecord
100
AcDbLinetypeTableRecord
  2
DIVIDE
 70
0
  3
Divide ____ . . ____ . . ____ . . ____ . . ____
 72
65
 73
6
 40
31.7500000000000036
 49
12.6999999999999993
 74
0
 49
-6.2999999999999998
 74
0
 49
0.1
 74
0
 49
-6.25
 74
0
 49
0.1
 74
0
 49
-6.2999999999999998
 74
0
  0
LTYPE
  5
44
100
AcDbSymbolTableRecord
100
AcDbLinetypeTableRecord
  2
ACAD_ISO06W100
 70
0
  3
ISO long-dash triple-dot ____ ... ____ ... ____
 72
65
 73
8
 40
36.0000000000000071
 49
24.0
 74
0
 49
-2.9500000000000002
 74
0
 49
0.1
 74
0
 49
-2.9000000000000004
 74
0
 49
0.1
 74
0
 49
-2.9000000000000004
 74
0
 49
0.1
 74
0
 49
-2.9500000000000002
 74
0
  0
LTYPE
  5
45
100
AcDbSymbolTableRecord
100
AcDbLinetypeTableRecord
  2
BORDER2
 70
0
  3
Border (.5x) __.__.__.__.__.__.__.__.__.__.__.
 72
65
 73
6
 40
22.2250000000000014
 49
6.3499999999999996
 74
0
 49
-3.1749999999999998
 74
0
 49
6.3499999999999996
 74
0
 49
-3.125
 74
0
 49
0.1
 74
0
 49
-3.125
 74
0
  0
LTYPE
  5
46
100
AcDbSymbolTableRecord
100
AcDbLinetypeTableRecord
  2
DASHDOT2
 70
0
  3
Dash dot (.5x) _._._._._._._._._._._._._._._.
 72
65
 73
4
 40
12.6999999999999993
 49
6.3499999999999996
 74
0
 49
-3.125
 74
0
 49
0.1
 74
0
 49
-3.125
 74
0
  0
LTYPE
  5
47
100
AcDbSymbolTableRecord
100
AcDbLinetypeTableRecord
  2
DIVIDE2
 70
0
  3
Divide (.5x) __..__..__..__..__..__..__..__.._
 72
65
 73
6
 40
15.8749999999999982
 49
6.3499999999999996
 74
0
 49
-3.125
 74
0
 49
0.1
 74
0
 49
-3.0750000000000002
 74
0
 49
0.1
 74
0
 49
-3.125
 74
0
  0
LTYPE
  5
48
100
AcDbSymbolTableRecord
100
AcDbLinetypeTableRecord
  2
ACAD_ISO10W100
 70
0
  3
ISO dash dot __ . __ . __ . __ . __ . __ . __ . 
 72
65
 73
4
 40
18.0
 49
12.0
 74
0
 49
-2.9500000000000002
 74
0
 49
0.1
 74
0
 49
-2.9500000000000002
 74
0
  0
LTYPE
  5
49
100
AcDbSymbolTableRecord
100
AcDbLinetypeTableRecord
  2
DASHDOTX2
 70
0
  3
Dash dot (2x) ____  .  ____  .  ____  .  ___
 72
65
 73
4
 40
50.7999999999999972
 49
25.3999999999999986
 74
0
 49
-12.6499999999999986
 74
0
 49
0.1
 74
0
 49
-12.6499999999999986
 74
0
  0
LTYPE
  5
4A
100
AcDbSymbolTableRecord
100
AcDbLinetypeTableRecord
  2
ACAD_ISO15W100
 70
0
  3
ISO double-dash triple-dot __ __ . . . __ __ . .
 72
65
 73
10
 40
39.0000000000000071
 49
12.0
 74
0
 49
-3.0
 74
0
 49
12.0
 74
0
 49
-2.9500000000000002
 74
0
 49
0.1
 74
0
 49
-2.9000000000000004
 74
0
 49
0.1
 74
0
 49
-2.9000000000000004
 74
0
 49
0.1
 74
0
 49
-2.9500000000000002
 74
0
  0
LTYPE
  5
4B
100
AcDbSymbolTableRecord
100
AcDbLinetypeTableRecord
  2
DIVIDEX2
 70
0
  3
Divide (2x) ________  .  .  ________  .  .  _
 72
65
 73
6
 40
63.5
 49
25.3999999999999986
 74
0
 49
-12.6499999999999986
 74
0
 49
0.1
 74
0
 49
-12.5999999999999979
 74
0
 49
0.1
 74
0
 49
-12.6499999999999986
 74
0
  0
LTYPE
  5
4C
100
AcDbSymbolTableRecord
100
AcDbLinetypeTableRecord
  2
ACAD_ISO12W100
 70
0
  3
ISO dash double-dot __ . . __ . . __ . . __ . . 
 72
65
 73
6
 40
21.0
 49
12.0
 74
0
 49
-2.9500000000000002
 74
0
 49
0.1
 74
0
 49
-2.9000000000000004
 74
0
 49
0.1
 74
0
 49
-2.9500000000000002
 74
0
  0
LTYPE
  5
4D
100
AcDbSymbolTableRecord
100
AcDbLinetypeTableRecord
  2
ACAD_ISO05W100
 70
0
  3
ISO long-dash double-dot ____ .. ____ .. ____ . 
 72
65
 73
6
 40
33.0000000000000071
 49
24.0
 74
0
 49
-2.9500000000000002
 74
0
 49
0.1
 74
0
 49
-2.9000000000000004
 74
0
 49
0.1
 74
0
 49
-2.9500000000000002
 74
0
  0
LTYPE
  5
4E
100
AcDbSymbolTableRecord
100
AcDbLinetypeTableRecord
  2
PHANTOMX2
 70
0
  3
Phantom (2x) ____________    ____    ____   _
 72
65
 73
6
 40
127.0000000000000142
 49
63.5
 74
0
 49
-12.6999999999999993
 74
0
 49
12.6999999999999993
 74
0
 49
-12.6999999999999993
 74
0
 49
12.6999999999999993
 74
0
 49
-12.6999999999999993
 74
0
  0
LTYPE
  5
4F
100
AcDbSymbolTableRecord
100
AcDbLinetypeTableRecord
  2
DOTX2
 70
0
  3
Dot (2x) .  .  .  .  .  .  .  .  .  .  .  .  .  .
 72
65
 73
2
 40
12.6999999999999993
 49
0.1
 74
0
 49
-12.5999999999999996
 74
0
  0
LTYPE
  5
50
100
AcDbSymbolTableRecord
100
AcDbLinetypeTableRecord
  2
DASHED
 70
0
  3
Dashed __ __ __ __ __ __ __ __ __ __ __ __ __ _
 72
65
 73
2
 40
19.0499999999999972
 49
12.6999999999999993
 74
0
 49
-6.3499999999999996
 74
0
  0
LTYPE
  5
51
100
AcDbSymbolTableRecord
100
AcDbLinetypeTableRecord
  2
ACAD_ISO14W100
 70
0
  3
ISO dash triple-dot __ . . . __ . . . __ . . . _
 72
65
 73
8
 40
24.0000000000000036
 49
12.0
 74
0
 49
-2.9500000000000002
 74
0
 49
0.1
 74
0
 49
-2.9000000000000004
 74
0
 49
0.1
 74
0
 49
-2.9000000000000004
 74
0
 49
0.1
 74
0
 49
-2.9500000000000002
 74
0
  0
LTYPE
  5
52
100
AcDbSymbolTableRecord
100
AcDbLinetypeTableRecord
  2
ACAD_ISO07W100
 70
0
  3
ISO dot . . . . . . . . . . . . . . . . . . . . 
 72
65
 73
2
 40
3.0
 49
0.1
 74
0
 49
-2.8999999999999999
 74
0
  0
LTYPE
  5
53
100
AcDbSymbolTableRecord
100
AcDbLinetypeTableRecord
  2
ACAD_ISO04W100
 70
0
  3
ISO long-dash dot ____ . ____ . ____ . ____ . _
 72
65
 73
4
 40
30.0
 49
24.0
 74
0
 49
-2.9500000000000002
 74
0
 49
0.1
 74
0
 49
-2.9500000000000002
 74
0
  0
LTYPE
  5
54
100
AcDbSymbolTableRecord
100
AcDbLinetypeTableRecord
  2
BORDERX2
 70
0
  3
Border (2x) ____  ____  .  ____  ____  .  ___
 72
65
 73
6
 40
88.8999999999999773
 49
25.3999999999999986
 74
0
 49
-12.6999999999999993
 74
0
 49
25.3999999999999986
 74
0
 49
-12.6499999999999986
 74
0
 49
0.1
 74
0
 49
-12.6499999999999986
 74
0
  0
LTYPE
  5
55
100
AcDbSymbolTableRecord
100
AcDbLinetypeTableRecord
  2
PHANTOM
 70
0
  3
Phantom ______  __  __  ______  __  __  ______ 
 72
65
 73
6
 40
63.5000000000000071
 49
31.75
 74
0
 49
-6.3499999999999996
 74
0
 49
6.3499999999999996
 74
0
 49
-6.3499999999999996
 74
0
 49
6.3499999999999996
 74
0
 49
-6.3499999999999996
 74
0
  0
LTYPE
  5
56
100
AcDbSymbolTableRecord
100
AcDbLinetypeTableRecord
  2
HIDDENX2
 70
0
  3
Hidden (2x) ____ ____ ____ ____ ____ ____ ____ 
 72
65
 73
2
 40
19.0499999999999972
 49
12.6999999999999993
 74
0
 49
-6.3499999999999996
 74
0
  0
ENDTAB
  0
TABLE
  2
LAYER
  5
2
100
AcDbSymbolTable
 70
6
  0
LAYER
  5
57
100
AcDbSymbolTableRecord
100
AcDbLayerTableRecord
  2
hidden
 70
0
 62
30
420
16744192
  6
Continuous
370
25
390
F
  0
LAYER
  5
58
100
AcDbSymbolTableRecord
100
AcDbLayerTableRecord
  2
Material List
 70
0
 62
2
420
16776960
  6
Continuous
370
25
390
F
  0
LAYER
  5
10
100
AcDbSymbolTableRecord
100
AcDbLayerTableRecord
  2
0
 70
0
 62
7
420
16777215
  6
Continuous
370
25
390
F
  0
LAYER
  5
59
100
AcDbSymbolTableRecord
100
AcDbLayerTableRecord
  2
seating
 70
0
 62
2
420
16776960
  6
HIDDENX2
370
5
390
F
  0
LAYER
  5
5A
100
AcDbSymbolTableRecord
100
AcDbLayerTableRecord
  2
DIM
 70
0
 62
4
420
65535
  6
Continuous
370
25
390
F
  0
LAYER
  5
5B
100
AcDbSymbolTableRecord
100
AcDbLayerTableRecord
  2
HIDEME
 70
1
 62
9
420
12632256
  6
Continuous
370
25
390
F
  0
ENDTAB
  0
TABLE
  2
STYLE
  5
3
100
AcDbSymbolTable
 70
3
  0
STYLE
  5
5C
100
AcDbSymbolTableRecord
100
AcDbTextStyleTableRecord
  2
Standard
 70
0
 40
0.0
 41
1.0
 50
0.0
 71
0
 42
2.5
  3

  4

1001
ACAD
1000
txt
1071
0
  0
STYLE
  5
5D
100
AcDbSymbolTableRecord
100
AcDbTextStyleTableRecord
  2
textstyle0
 70
0
 40
0.0
 41
1.0
 50
0.0
 71
0
 42
2.5
  3

  4

1001
ACAD
1000
Arial
1071
0
  0
STYLE
  5
5E
100
AcDbSymbolTableRecord
100
AcDbTextStyleTableRecord
  2
textstyle1
 70
0
 40
0.0
 41
1.0
 50
0.0
 71
0
 42
2.5
  3

  4

1001
ACAD
1000
Arial
1071
0
  0
ENDTAB
  0
TABLE
  2
VIEW
  5
6
100
AcDbSymbolTable
 70
0
  0
ENDTAB
  0
TABLE
  2
UCS
  5
7
100
AcDbSymbolTable
 70
0
  0
ENDTAB
  0
TABLE
  2
APPID
  5
9
100
AcDbSymbolTable
 70
1
  0
APPID
  5
12
100
AcDbSymbolTableRecord
100
AcDbRegAppTableRecord
  2
ACAD
 70
0
  0
APPID
  5
5F
100
AcDbSymbolTableRecord
100
AcDbRegAppTableRecord
  2
QCAD
 70
0
  0
ENDTAB
  0
TABLE
  2
DIMSTYLE
  5
A
100
AcDbSymbolTable
 70
1
100
AcDbDimStyleTable
 71
0
  0
DIMSTYLE
105
27
100
AcDbSymbolTableRecord
100
AcDbDimStyleTableRecord
  2
Standard
 41
1.5
 42
0.375
 43
3.75
 44
0.75
 70
0
 73
0
 74
0
 77
1
 78
8
140
1.5
141
2.5
143
0.03937007874016
147
0.375
171
3
172
1
271
2
272
2
274
3
278
44
283
0
284
8
340
5C
  0
ENDTAB
  0
TABLE
  2
BLOCK_RECORD
  5
1
100
AcDbSymbolTable
 70
1
  0
BLOCK_RECORD
  5
1F
100
AcDbSymbolTableRecord
100
AcDbBlockTableRecord
  2
*Model_Space
340
22
  0
BLOCK_RECORD
  5
1B
100
AcDbSymbolTableRecord
100
AcDbBlockTableRecord
  2
*Paper_Space
340
1E
  0
BLOCK_RECORD
  5
23
100
AcDbSymbolTableRecord
100
AcDbBlockTableRecord
  2
*Paper_Space0
340
26
  0
ENDTAB
  0
ENDSEC
  0
SECTION
  2
BLOCKS
  0
BLOCK
  5
20
100
AcDbEntity
  8
0
100
AcDbBlockBegin
  2
*Model_Space
 70
0
 10
0.0
 20
0.0
 30
0.0
  3
*Model_Space
  1

  0
ENDBLK
  5
21
100
AcDbEntity
  8
0
100
AcDbBlockEnd
  0
BLOCK
  5
1C
100
AcDbEntity
 67
1
  8
0
100
AcDbBlockBegin
  2
*Paper_Space
 70
0
 10
0.0
 20
0.0
 30
0.0
  3
*Paper_Space
  1

  0
ENDBLK
  5
1D
100
AcDbEntity
 67
1
  8
0
100
AcDbBlockEnd
  0
BLOCK
  5
24
100
AcDbEntity
  8
0
100
AcDbBlockBegin
  2
*Paper_Space0
 70
0
 10
0.0
 20
0.0
 30
0.0
  3
*Paper_Space0
  1

  0
ENDBLK
  5
25
100
AcDbEntity
  8
0
100
AcDbBlockEnd
  0
ENDSEC
  0
SECTION
  2
ENTITIES
  0
LINE
  5
60
100
AcDbEntity
  8
0
 62
256
370
-1
 48
1.0
  6
BYLAYER
100
AcDbLine
 10
25.3307032369362162
 20
17.3593223021660918
 30
0.0
 11
97.3307032369362162
 21
17.3593223021660918
 31
0.0
  0
LINE
  5
61
100
AcDbEntity
  8
0
 62
256
370
-1
 48
1.0
  6
BYLAYER
100
AcDbLine
 10
25.3307032369362162
 20
45.8593223021660918
 30
0.0
 11
25.3307032369362162
 21
12.8593223021660918
 31
0.0
  0
LINE
  5
62
100
AcDbEntity
  8
0
 62
256
370
-1
 48
1.0
  6
BYLAYER
100
AcDbLine
 10
97.3307032369362162
 20
45.8593223021660918
 30
0.0
 11
97.3307032369362162
 21
12.8593223021660918
 31
0.0
  0
LINE
  5
63
100
AcDbEntity
  8
hidden
 62
256
370
-1
 48
1.0
  6
BYLAYER
100
AcDbLine
 10
95.8307032369362162
 20
20.8593223021660918
 30
0.0
 11
95.8307032369362162
 21
17.3593223021660918
 31
0.0
  0
LINE
  5
64
100
AcDbEntity
  8
hidden
 62
256
370
-1
 48
1.0
  6
BYLAYER
100
AcDbLine
 10
26.8307032369362162
 20
20.8593223021660918
 30
0.0
 11
26.8307032369362162
 21
17.3593223021660918
 31
0.0
  0
LINE
  5
65
100
AcDbEntity
  8
0
 62
256
370
-1
 48
1.0
  6
BYLAYER
100
AcDbLine
 10
25.3307032369362162
 20
20.8593223021660918
 30
0.0
 11
97.3307032369362162
 21
20.8593223021660918
 31
0.0
  0
LINE
  5
66
100
AcDbEntity
  8
hidden
 62
256
370
-1
 48
1.0
  6
BYLAYER
100
AcDbLine
 10
98.8307032369362162
 20
20.8593223021660918
 30
0.0
 11
98.8307032369362162
 21
17.3593223021660918
 31
0.0
  0
LINE
  5
67
100
AcDbEntity
  8
hidden
 62
256
370
-1
 48
1.0
  6
BYLAYER
100
AcDbLine
 10
23.8307032369362162
 20
20.8593223021660918
 30
0.0
 11
23.8307032369362162
 21
17.3593223021660918
 31
0.0
  0
LINE
  5
68
100
AcDbEntity
  8
0
 62
256
370
-1
 48
1.0
  6
BYLAYER
100
AcDbLine
 10
21.8307032369362162
 20
45.8593223021660918
 30
0.0
 11
21.8307032369362162
 21
12.8593223021660918
 31
0.0
  0
LINE
  5
69
100
AcDbEntity
  8
0
 62
256
370
-1
 48
1.0
  6
BYLAYER
100
AcDbLine
 10
100.8307032369362162
 20
45.8593223021660918
 30
0.0
 11
100.8307032369362162
 21
12.8593223021660918
 31
0.0
  0
LINE
  5
6A
100
AcDbEntity
  8
hidden
 62
256
370
-1
 48
1.0
  6
BYLAYER
100
AcDbLine
 10
25.3307032369362162
 20
20.8593223021660918
 30
0.0
 11
21.8307032369362162
 21
20.8593223021660918
 31
0.0
  0
LINE
  5
6B
100
AcDbEntity
  8
hidden
 62
256
370
-1
 48
1.0
  6
BYLAYER
100
AcDbLine
 10
97.3307032369362162
 20
20.8593223021660918
 30
0.0
 11
100.8307032369362162
 21
20.8593223021660918
 31
0.0
  0
LINE
  5
6C
100
AcDbEntity
  8
hidden
 62
256
370
-1
 48
1.0
  6
BYLAYER
100
AcDbLine
 10
97.3307032369362162
 20
22.3593223021660918
 30
0.0
 11
100.8307032369362162
 21
22.3593223021660918
 31
0.0
  0
LINE
  5
6D
100
AcDbEntity
  8
hidden
 62
256
370
-1
 48
1.0
  6
BYLAYER
100
AcDbLine
 10
25.3307032369362162
 20
22.3593223021660918
 30
0.0
 11
21.8307032369362162
 21
22.3593223021660918
 31
0.0
  0
LINE
  5
6E
100
AcDbEntity
  8
0
 62
256
370
-1
 48
1.0
  6
BYLAYER
100
AcDbLine
 10
98.8307032369362162
 20
17.3593223021660918
 30
0.0
 11
97.3307032369362162
 21
17.3593223021660918
 31
0.0
  0
LINE
  5
6F
100
AcDbEntity
  8
hidden
 62
256
370
-1
 48
1.0
  6
BYLAYER
100
AcDbLine
 10
25.3307032369362162
 20
17.3593223021660918
 30
0.0
 11
23.8307032369362162
 21
17.3593223021660918
 31
0.0
  0
LINE
  5
70
100
AcDbEntity
  8
0
 62
256
370
-1
 48
1.0
  6
BYLAYER
100
AcDbLine
 10
21.8307032369362162
 20
12.8593223021660918
 30
0.0
 11
25.3307032369362162
 21
12.8593223021660918
 31
0.0
  0
LINE
  5
71
100
AcDbEntity
  8
0
 62
256
370
-1
 48
1.0
  6
BYLAYER
100
AcDbLine
 10
97.3307032369362162
 20
12.8593223021660918
 30
0.0
 11
100.8307032369362162
 21
12.8593223021660918
 31
0.0
  0
LINE
  5
72
100
AcDbEntity
  8
0
 62
256
370
-1
 48
1.0
  6
BYLAYER
100
AcDbLine
 10
100.8307032369362162
 20
45.8593223021660918
 30
0.0
 11
97.3307032369362162
 21
45.8593223021660918
 31
0.0
  0
LINE
  5
73
100
AcDbEntity
  8
0
 62
256
370
-1
 48
1.0
  6
BYLAYER
100
AcDbLine
 10
21.8307032369362162
 20
45.8593223021660918
 30
0.0
 11
25.3307032369362162
 21
45.8593223021660918
 31
0.0
  0
LINE
  5
74
100
AcDbEntity
  8
0
 62
256
370
-1
 48
1.0
  6
BYLAYER
100
AcDbLine
 10
114.8307032369362162
 20
38.3593223021660918
 30
0.0
 11
114.8307032369362162
 21
12.8593223021660883
 31
0.0
  0
LINE
  5
75
100
AcDbEntity
  8
0
 62
256
370
-1
 48
1.0
  6
BYLAYER
100
AcDbLine
 10
116.3307032369362162
 20
38.3593223021660918
 30
0.0
 11
116.3307032369362162
 21
12.8593223021660883
 31
0.0
  0
LINE
  5
76
100
AcDbEntity
  8
0
 62
256
370
-1
 48
1.0
  6
BYLAYER
100
AcDbLine
 10
114.8307032369362162
 20
12.8593223021660883
 30
0.0
 11
116.3307032369362162
 21
12.8593223021660883
 31
0.0
  0
LINE
  5
77
100
AcDbEntity
  8
0
 62
256
370
-1
 48
1.0
  6
BYLAYER
100
AcDbLine
 10
154.3307032369362162
 20
45.8593223021660847
 30
0.0
 11
154.3307032369362162
 21
12.8593223021660847
 31
0.0
  0
LINE
  5
78
100
AcDbEntity
  8
0
 62
256
370
-1
 48
1.0
  6
BYLAYER
100
AcDbLine
 10
155.8307032369362162
 20
45.8593223021660847
 30
0.0
 11
155.8307032369362162
 21
12.8593223021660847
 31
0.0
  0
LINE
  5
79
100
AcDbEntity
  8
0
 62
256
370
-1
 48
1.0
  6
BYLAYER
100
AcDbLine
 10
116.3307032369362162
 20
22.3593223021660918
 30
0.0
 11
154.3307032369362162
 21
22.3593223021660918
 31
0.0
  0
LINE
  5
7A
100
AcDbEntity
  8
0
 62
256
370
-1
 48
1.0
  6
BYLAYER
100
AcDbLine
 10
116.3307032369362162
 20
20.8593223021660918
 30
0.0
 11
154.3307032369362162
 21
20.8593223021660918
 31
0.0
  0
LINE
  5
7B
100
AcDbEntity
  8
0
 62
256
370
-1
 48
1.0
  6
BYLAYER
100
AcDbLine
 10
116.3307032369362162
 20
17.3593223021660918
 30
0.0
 11
154.3307032369362162
 21
17.3593223021660918
 31
0.0
  0
LINE
  5
7C
100
AcDbEntity
  8
0
 62
256
370
-1
 48
1.0
  6
BYLAYER
100
AcDbLine
 10
114.8307032369362162
 20
38.3593223021660918
 30
0.0
 11
116.3307032369362162
 21
38.3593223021660918
 31
0.0
  0
LINE
  5
7D
100
AcDbEntity
  8
0
 62
256
370
-1
 48
1.0
  6
BYLAYER
100
AcDbLine
 10
116.3307032369362162
 20
38.3593223021660918
 30
0.0
 11
154.3307032369362162
 21
38.3593223021660918
 31
0.0
  0
LINE
  5
7E
100
AcDbEntity
  8
0
 62
256
370
-1
 48
1.0
  6
BYLAYER
100
AcDbLine
 10
116.3307032369362162
 20
36.8593223021660918
 30
0.0
 11
154.3307032369362162
 21
36.8593223021660918
 31
0.0
  0
LINE
  5
7F
100
AcDbEntity
  8
0
 62
256
370
-1
 48
1.0
  6
BYLAYER
100
AcDbLine
 10
154.3307032369362162
 20
12.8593223021660847
 30
0.0
 11
155.8307032369362162
 21
12.8593223021660847
 31
0.0
  0
LINE
  5
80
100
AcDbEntity
  8
0
 62
256
370
-1
 48
1.0
  6
BYLAYER
100
AcDbLine
 10
25.3307032369362162
 20
38.3593223021660918
 30
0.0
 11
21.8307032369362162
 21
38.3593223021660918
 31
0.0
  0
LINE
  5
81
100
AcDbEntity
  8
0
 62
256
370
-1
 48
1.0
  6
BYLAYER
100
AcDbLine
 10
100.8307032369362162
 20
38.3593223021660918
 30
0.0
 11
97.3307032369362162
 21
38.3593223021660918
 31
0.0
  0
LINE
  5
82
100
AcDbEntity
  8
hidden
 62
256
370
-1
 48
1.0
  6
BYLAYER
100
AcDbLine
 10
100.8307032369362162
 20
36.8593223021660918
 30
0.0
 11
97.3307032369362162
 21
36.8593223021660918
 31
0.0
  0
LINE
  5
83
100
AcDbEntity
  8
hidden
 62
256
370
-1
 48
1.0
  6
BYLAYER
100
AcDbLine
 10
25.3307032369362162
 20
36.8593223021660918
 30
0.0
 11
21.8307032369362162
 21
36.8593223021660918
 31
0.0
  0
LINE
  5
84
100
AcDbEntity
  8
0
 62
256
370
-1
 48
1.0
  6
BYLAYER
100
AcDbLine
 10
25.3307032369362162
 20
82.8593223021660918
 30
0.0
 11
25.3307032369362162
 21
123.8593223021660918
 31
0.0
  0
LINE
  5
85
100
AcDbEntity
  8
0
 62
256
370
-1
 48
1.0
  6
BYLAYER
100
AcDbLine
 10
97.3307032369362162
 20
84.3593223021660918
 30
0.0
 11
97.3307032369362162
 21
123.8593223021660918
 31
0.0
  0
LINE
  5
86
100
AcDbEntity
  8
0
 62
256
370
-1
 48
1.0
  6
BYLAYER
100
AcDbLine
 10
25.3307032369362162
 20
123.8593223021660918
 30
0.0
 11
97.3307032369362162
 21
123.8593223021660918
 31
0.0
  0
LINE
  5
87
100
AcDbEntity
  8
0
 62
256
370
-1
 48
1.0
  6
BYLAYER
100
AcDbLine
 10
95.8307032369362162
 20
84.3593223021660918
 30
0.0
 11
95.8307032369362162
 21
122.3593223021660918
 31
0.0
  0
LINE
  5
88
100
AcDbEntity
  8
0
 62
256
370
-1
 48
1.0
  6
BYLAYER
100
AcDbLine
 10
26.8307032369362162
 20
84.3593223021660918
 30
0.0
 11
26.8307032369362162
 21
122.3593223021660918
 31
0.0
  0
LINE
  5
89
100
AcDbEntity
  8
0
 62
256
370
-1
 48
1.0
  6
BYLAYER
100
AcDbLine
 10
25.3307032369362162
 20
122.3593223021660918
 30
0.0
 11
97.3307032369362162
 21
122.3593223021660918
 31
0.0
  0
LINE
  5
8A
100
AcDbEntity
  8
hidden
 62
256
370
-1
 48
1.0
  6
BYLAYER
100
AcDbLine
 10
116.3307032369362162
 20
22.3593223021660918
 30
0.0
 11
114.8307032369362162
 21
22.3593223021660918
 31
0.0
  0
LINE
  5
8B
100
AcDbEntity
  8
hidden
 62
256
370
-1
 48
1.0
  6
BYLAYER
100
AcDbLine
 10
116.3307032369362162
 20
20.8593223021660883
 30
0.0
 11
114.8307032369362162
 21
20.8593223021660918
 31
0.0
  0
LINE
  5
8C
100
AcDbEntity
  8
hidden
 62
256
370
-1
 48
1.0
  6
BYLAYER
100
AcDbLine
 10
116.3307032369362162
 20
17.3593223021660918
 30
0.0
 11
114.8307032369362162
 21
17.3593223021660918
 31
0.0
  0
LINE
  5
8D
100
AcDbEntity
  8
0
 62
256
370
-1
 48
1.0
  6
BYLAYER
100
AcDbLine
 10
60.5807032369362162
 20
122.3593223021660918
 30
0.0
 11
60.5807032369362162
 21
84.3593223021660918
 31
0.0
  0
LINE
  5
8E
100
AcDbEntity
  8
0
 62
256
370
-1
 48
1.0
  6
BYLAYER
100
AcDbLine
 10
62.0807032369362162
 20
122.3593223021660918
 30
0.0
 11
62.0807032369362162
 21
84.3593223021660918
 31
0.0
  0
LINE
  5
8F
100
AcDbEntity
  8
0
 62
256
370
-1
 48
1.0
  6
BYLAYER
100
AcDbLine
 10
44.4557032369362162
 20
84.3593223021660918
 30
0.0
 11
44.4557032369362162
 21
122.3593223021660918
 31
0.0
  0
LINE
  5
90
100
AcDbEntity
  8
0
 62
256
370
-1
 48
1.0
  6
BYLAYER
100
AcDbLine
 10
42.9557032369362162
 20
84.3593223021660918
 30
0.0
 11
42.9557032369362162
 21
122.3593223021660918
 31
0.0
  0
LINE
  5
91
100
AcDbEntity
  8
0
 62
256
370
-1
 48
1.0
  6
BYLAYER
100
AcDbLine
 10
79.7057032369362162
 20
84.3593223021660918
 30
0.0
 11
79.7057032369362162
 21
122.3593223021660918
 31
0.0
  0
LINE
  5
92
100
AcDbEntity
  8
0
 62
256
370
-1
 48
1.0
  6
BYLAYER
100
AcDbLine
 10
78.2057032369362162
 20
84.3593223021660918
 30
0.0
 11
78.2057032369362162
 21
122.3593223021660918
 31
0.0
  0
DIMENSION
  5
93
100
AcDbEntity
  8
DIM
 62
256
370
-1
 48
1.0
  6
BYLAYER
100
AcDbDimension
 10
97.3307032369362304
 20
125.8593223021660918
 30
0.0
 11
88.1432032369362162
 21
126.9843223021660918
 31
0.0
 70
0
 71
8
 72
2
 74
0
 75
0
 41
1.0
 42
0.0
  1

  3
Standard
100
AcDbAlignedDimension
 13
97.3307032369362162
 23
123.8593223021661061
 33
0.0
 14
78.9557032369362304
 24
122.3593223021660776
 34
0.0
 50
0.0
100
AcDbRotatedDimension
1001
ACAD
1000
DSTYLE
1002
{
1070
144
1040
1.0
1070
40
1040
1.0
1002
}
  0
DIMENSION
  5
94
100
AcDbEntity
  8
DIM
 62
256
370
-1
 48
1.0
  6
BYLAYER
100
AcDbDimension
 10
78.9557032369362162
 20
125.8593223021660776
 30
0.0
 11
70.1432032369362304
 21
126.9843223021660776
 31
0.0
 70
0
 71
8
 72
2
 74
0
 75
0
 41
1.0
 42
0.0
  1

  3
Standard
100
AcDbAlignedDimension
 13
78.9557032369362304
 23
122.3593223021660776
 33
0.0
 14
61.3307032369362304
 24
122.3593223021660918
 34
0.0
 50
0.0
100
AcDbRotatedDimension
1001
ACAD
1000
DSTYLE
1002
{
1070
144
1040
1.0
1070
40
1040
1.0
1002
}
  0
DIMENSION
  5
95
100
AcDbEntity
  8
DIM
 62
256
370
-1
 48
1.0
  6
BYLAYER
100
AcDbDimension
 10
61.3307032369362162
 20
125.8593223021661061
 30
0.0
 11
52.5182032369362162
 21
126.9843223021661061
 31
0.0
 70
0
 71
8
 72
2
 74
0
 75
0
 41
1.0
 42
0.0
  1

  3
Standard
100
AcDbAlignedDimension
 13
61.3307032369362304
 23
122.3593223021660918
 33
0.0
 14
43.7057032369362091
 24
122.3593223021660918
 34
0.0
 50
0.0
100
AcDbRotatedDimension
1001
ACAD
1000
DSTYLE
1002
{
1070
144
1040
1.0
1070
40
1040
1.0
1002
}
  0
DIMENSION
  5
96
100
AcDbEntity
  8
DIM
 62
256
370
-1
 48
1.0
  6
BYLAYER
100
AcDbDimension
 10
43.7057032369362233
 20
125.8593223021660918
 30
0.0
 11
34.5182032369362091
 21
126.9843223021660918
 31
0.0
 70
0
 71
8
 72
2
 74
0
 75
0
 41
1.0
 42
0.0
  1

  3
Standard
100
AcDbAlignedDimension
 13
43.7057032369362091
 23
122.3593223021660918
 33
0.0
 14
25.3307032369362126
 24
123.8593223021660918
 34
0.0
 50
0.0
100
AcDbRotatedDimension
1001
ACAD
1000
DSTYLE
1002
{
1070
144
1040
1.0
1070
40
1040
1.0
1002
}
  0
LWPOLYLINE
  5
97
100
AcDbEntity
  8
seating
 62
256
370
-1
 48
1.0
  6
BYLAYER
100
AcDbPolyline
 90
5
 70
0
 10
102.3307032369362162
 20
123.8593223021660918
 10
174.3307032369362162
 20
123.8593223021660918
 10
174.3307032369362162
 20
120.3593223021660918
 10
102.3307032369362162
 20
120.3593223021660918
 10
102.3307032369362162
 20
123.8593223021660918
  0
LWPOLYLINE
  5
98
100
AcDbEntity
  8
seating
 62
256
370
-1
 48
1.0
  6
BYLAYER
100
AcDbPolyline
 90
5
 70
0
 10
102.3307032369362162
 20
111.3593223021660918
 10
174.3307032369362162
 20
111.3593223021660918
 10
174.3307032369362162
 20
107.8593223021660918
 10
102.3307032369362162
 20
107.8593223021660918
 10
102.3307032369362162
 20
111.3593223021660918
  0
LWPOLYLINE
  5
99
100
AcDbEntity
  8
seating
 62
256
370
-1
 48
1.0
  6
BYLAYER
100
AcDbPolyline
 90
5
 70
0
 10
102.3307032369362162
 20
98.8593223021660918
 10
174.3307032369362162
 20
98.8593223021660918
 10
174.3307032369362162
 20
95.3593223021660918
 10
102.3307032369362162
 20
95.3593223021660918
 10
102.3307032369362162
 20
98.8593223021660918
  0
LWPOLYLINE
  5
9A
100
AcDbEntity
  8
seating
 62
256
370
-1
 48
1.0
  6
BYLAYER
100
AcDbPolyline
 90
5
 70
0
 10
102.3307032369362162
 20
87.1093223021660918
 10
174.3307032369362162
 20
87.1093223021660918
 10
174.3307032369362162
 20
83.6093223021660918
 10
102.3307032369362162
 20
83.6093223021660918
 10
102.3307032369362162
 20
87.1093223021660918
  0
LWPOLYLINE
  5
9B
100
AcDbEntity
  8
seating
 62
256
370
-1
 48
1.0
  6
BYLAYER
100
AcDbPolyline
 90
5
 70
0
 10
102.3307032369362162
 20
76.75
 10
174.3307032369362162
 20
76.75
 10
174.3307032369362162
 20
73.25
 10
102.3307032369362162
 20
73.25
 10
102.3307032369362162
 20
76.75
  0
LWPOLYLINE
  5
9C
100
AcDbEntity
  8
seating
 62
256
370
-1
 48
1.0
  6
BYLAYER
100
AcDbPolyline
 90
5
 70
0
 10
102.3307032369362162
 20
71.75
 10
174.3307032369362162
 20
71.75
 10
174.3307032369362162
 20
68.25
 10
102.3307032369362162
 20
68.25
 10
102.3307032369362162
 20
71.75
  0
LWPOLYLINE
  5
9D
100
AcDbEntity
  8
seating
 62
256
370
-1
 48
1.0
  6
BYLAYER
100
AcDbPolyline
 90
5
 70
0
 10
102.3307032369362162
 20
66.75
 10
174.3307032369362162
 20
66.75
 10
174.3307032369362162
 20
63.25
 10
102.3307032369362162
 20
63.25
 10
102.3307032369362162
 20
66.75
  0
LWPOLYLINE
  5
9E
100
AcDbEntity
  8
seating
 62
256
370
-1
 48
1.0
  6
BYLAYER
100
AcDbPolyline
 90
5
 70
0
 10
102.3307032369362162
 20
61.75
 10
174.3307032369362162
 20
61.75
 10
174.3307032369362162
 20
58.25
 10
102.3307032369362162
 20
58.25
 10
102.3307032369362162
 20
61.75
  0
DIMENSION
  5
9F
100
AcDbEntity
  8
DIM
 62
256
370
-1
 48
1.0
  6
BYLAYER
100
AcDbDimension
 10
25.3307032369362162
 20
8.8593223021660847
 30
0.0
 11
61.3307032369362091
 21
9.9843223021660847
 31
0.0
 70
0
 71
8
 72
2
 74
0
 75
0
 41
1.0
 42
0.0
  1

  3
Standard
100
AcDbAlignedDimension
 13
25.330703236936202
 23
12.8593223021661096
 33
0.0
 14
97.3307032369362162
 24
12.8593223021661309
 34
0.0
 50
0.0
100
AcDbRotatedDimension
1001
ACAD
1000
DSTYLE
1002
{
1070
144
1040
1.0
1070
40
1040
1.0
1002
}
  0
DIMENSION
  5
A0
100
AcDbEntity
  8
DIM
 62
256
370
-1
 48
1.0
  6
BYLAYER
100
AcDbDimension
 10
100.8307032369361877
 20
4.8593223021659284
 30
0.0
 11
61.3307032369362162
 21
5.9843223021659284
 31
0.0
 70
0
 71
8
 72
2
 74
0
 75
0
 41
1.0
 42
0.0
  1

  3
Standard
100
AcDbAlignedDimension
 13
100.8307032369362162
 23
12.8593223021661487
 33
0.0
 14
21.8307032369362091
 24
12.8593223021661061
 34
0.0
 50
0.0
100
AcDbRotatedDimension
1001
ACAD
1000
DSTYLE
1002
{
1070
144
1040
1.0
1070
40
1040
1.0
1002
}
  0
DIMENSION
  5
A1
100
AcDbEntity
  8
DIM
 62
256
370
-1
 48
1.0
  6
BYLAYER
100
AcDbDimension
 10
19.330703236936202
 20
12.8593223021661096
 30
0.0
 11
18.205703236936202
 21
29.359322302166099
 31
0.0
 70
0
 71
8
 72
2
 74
0
 75
0
 41
1.0
 42
0.0
  1

  3
Standard
100
AcDbAlignedDimension
 13
25.330703236936202
 23
12.8593223021661096
 33
0.0
 14
21.8307032369362162
 24
45.8593223021660918
 34
0.0
 50
90.0
100
AcDbRotatedDimension
1001
ACAD
1000
DSTYLE
1002
{
1070
144
1040
1.0
1070
40
1040
1.0
1002
}
  0
LINE
  5
A2
100
AcDbEntity
  8
HIDEME
 62
256
370
-1
 48
1.0
  6
BYLAYER
100
AcDbLine
 10
37.3307032369362162
 20
-7.6406776978339153
 30
0.0
 11
37.3307032369362162
 21
-43.1406776978339082
 31
0.0
  0
LWPOLYLINE
  5
A3
100
AcDbEntity
  8
HIDEME
 62
256
370
-1
 48
1.0
  6
BYLAYER
100
AcDbPolyline
 90
5
 70
0
 10
37.3307032369362162
 20
-23.6406776978339082
 10
133.3307032369362162
 20
-23.6406776978339366
 10
133.3307032369362162
 20
-27.1406776978339366
 10
37.3307032369362162
 20
-27.1406776978339082
 10
37.3307032369362162
 20
-23.6406776978339224
  0
LINE
  5
A4
100
AcDbEntity
  8
0
 62
256
370
-1
 48
1.0
  6
BYLAYER
100
AcDbLine
 10
154.3307032369362162
 20
30.3593223021660918
 30
0.0
 11
116.3307032369362162
 21
30.3593223021660918
 31
0.0
  0
LINE
  5
A5
100
AcDbEntity
  8
0
 62
256
370
-1
 48
1.0
  6
BYLAYER
100
AcDbLine
 10
154.3307032369362162
 20
28.8593223021660918
 30
0.0
 11
116.3307032369362162
 21
28.8593223021660918
 31
0.0
  0
LINE
  5
A6
100
AcDbEntity
  8
hidden
 62
256
370
-1
 48
1.0
  6
BYLAYER
100
AcDbLine
 10
25.3307032369362162
 20
30.3593223021660918
 30
0.0
 11
21.8307032369362162
 21
30.3593223021660918
 31
0.0
  0
LINE
  5
A7
100
AcDbEntity
  8
hidden
 62
256
370
-1
 48
1.0
  6
BYLAYER
100
AcDbLine
 10
100.8307032369362162
 20
30.3593223021660918
 30
0.0
 11
97.3307032369362162
 21
30.3593223021660918
 31
0.0
  0
LINE
  5
A8
100
AcDbEntity
  8
hidden
 62
256
370
-1
 48
1.0
  6
BYLAYER
100
AcDbLine
 10
25.3307032369362162
 20
28.8593223021660918
 30
0.0
 11
21.8307032369362162
 21
28.8593223021660918
 31
0.0
  0
LINE
  5
A9
100
AcDbEntity
  8
hidden
 62
256
370
-1
 48
1.0
  6
BYLAYER
100
AcDbLine
 10
100.8307032369362162
 20
28.8593223021660918
 30
0.0
 11
97.3307032369362162
 21
28.8593223021660918
 31
0.0
  0
LINE
  5
AA
100
AcDbEntity
  8
hidden
 62
256
370
-1
 48
1.0
  6
BYLAYER
100
AcDbLine
 10
154.3307032369362162
 20
22.3593223021660918
 30
0.0
 11
155.8307032369362162
 21
22.3593223021660918
 31
0.0
  0
LINE
  5
AB
100
AcDbEntity
  8
hidden
 62
256
370
-1
 48
1.0
  6
BYLAYER
100
AcDbLine
 10
155.8307032369362162
 20
20.8593223021660918
 30
0.0
 11
154.3307032369362162
 21
20.8593223021660918
 31
0.0
  0
LINE
  5
AC
100
AcDbEntity
  8
hidden
 62
256
370
-1
 48
1.0
  6
BYLAYER
100
AcDbLine
 10
154.3307032369362162
 20
17.3593223021660918
 30
0.0
 11
155.8307032369362162
 21
17.3593223021660918
 31
0.0
  0
LINE
  5
AD
100
AcDbEntity
  8
0
 62
256
370
-1
 48
1.0
  6
BYLAYER
100
AcDbLine
 10
154.3307032369362162
 20
45.8593223021660847
 30
0.0
 11
155.8307032369362162
 21
45.8593223021660847
 31
0.0
  0
DIMENSION
  5
AE
100
AcDbEntity
  8
DIM
 62
256
370
-1
 48
1.0
  6
BYLAYER
100
AcDbDimension
 10
112.3307032369362162
 20
38.3593223021660421
 30
0.0
 11
111.2057032369362162
 21
25.6093223021661132
 31
0.0
 70
0
 71
8
 72
2
 74
0
 75
0
 41
1.0
 42
0.0
  1

  3
Standard
100
AcDbAlignedDimension
 13
114.8307032369362162
 23
38.3593223021660918
 33
0.0
 14
114.8307032369361877
 24
12.8593223021661345
 34
0.0
 50
90.0
100
AcDbRotatedDimension
1001
ACAD
1000
DSTYLE
1002
{
1070
144
1040
1.0
1070
40
1040
1.0
1002
}
  0
DIMENSION
  5
AF
100
AcDbEntity
  8
DIM
 62
256
370
-1
 48
1.0
  6
BYLAYER
100
AcDbDimension
 10
159.3307032369362162
 20
12.859322302166305
 30
0.0
 11
158.2057032369362162
 21
17.6093223021659
 31
0.0
 70
0
 71
8
 72
2
 74
0
 75
0
 41
1.0
 42
0.0
  1

  3
Standard
100
AcDbAlignedDimension
 13
155.8307032369362162
 23
12.859322302165797
 33
0.0
 14
155.8307032369362162
 24
22.359322302166003
 34
0.0
 50
90.0
100
AcDbRotatedDimension
1001
ACAD
1000
DSTYLE
1002
{
1070
144
1040
1.0
1070
40
1040
1.0
1002
}
  0
DIMENSION
  5
B0
100
AcDbEntity
  8
DIM
 62
256
370
-1
 48
1.0
  6
BYLAYER
100
AcDbDimension
 10
163.3307032369362162
 20
12.8593223021661487
 30
0.0
 11
162.2057032369362162
 21
21.6093223021658645
 31
0.0
 70
0
 71
8
 72
2
 74
0
 75
0
 41
1.0
 42
0.0
  1

  3
Standard
100
AcDbAlignedDimension
 13
155.8307032369362162
 23
12.859322302165797
 33
0.0
 14
154.3307032369361877
 24
30.3593223021659355
 34
0.0
 50
90.0
100
AcDbRotatedDimension
1001
ACAD
1000
DSTYLE
1002
{
1070
144
1040
1.0
1070
40
1040
1.0
1002
}
  0
DIMENSION
  5
B1
100
AcDbEntity
  8
DIM
 62
256
370
-1
 48
1.0
  6
BYLAYER
100
AcDbDimension
 10
167.3307032369362162
 20
12.8593223021658858
 30
0.0
 11
166.2057032369362162
 21
25.6093223021659462
 31
0.0
 70
0
 71
8
 72
2
 74
0
 75
0
 41
1.0
 42
0.0
  1

  3
Standard
100
AcDbAlignedDimension
 13
156.2057032369362162
 23
12.8593223021658858
 33
0.0
 14
154.3307032369362162
 24
38.3593223021660066
 34
0.0
 50
90.0
100
AcDbRotatedDimension
1001
ACAD
1000
DSTYLE
1002
{
1070
144
1040
1.0
1070
40
1040
1.0
1002
}
  0
DIMENSION
  5
B2
100
AcDbEntity
  8
DIM
 62
256
370
-1
 48
1.0
  6
BYLAYER
100
AcDbDimension
 10
171.3307032369362162
 20
12.8593223021661451
 30
0.0
 11
170.2057032369362162
 21
29.3593223021660066
 31
0.0
 70
0
 71
8
 72
2
 74
0
 75
0
 41
1.0
 42
0.0
  1

  3
Standard
100
AcDbAlignedDimension
 13
155.8307032369362162
 23
12.859322302165797
 33
0.0
 14
155.8307032369362162
 24
45.8593223021662197
 34
0.0
 50
90.0
100
AcDbRotatedDimension
1001
ACAD
1000
DSTYLE
1002
{
1070
144
1040
1.0
1070
40
1040
1.0
1002
}
  0
DIMENSION
  5
B3
100
AcDbEntity
  8
DIM
 62
256
370
-1
 48
1.0
  6
BYLAYER
100
AcDbDimension
 10
116.3307032369362162
 20
39.8593223021660137
 30
0.0
 11
135.3307032369362162
 21
40.9843223021660137
 31
0.0
 70
0
 71
8
 72
2
 74
0
 75
0
 41
1.0
 42
0.0
  1

  3
Standard
100
AcDbAlignedDimension
 13
116.3307032369362162
 23
38.3593223021660279
 33
0.0
 14
154.3307032369362162
 24
38.3593223021660066
 34
0.0
 50
0.0
100
AcDbRotatedDimension
1001
ACAD
1000
DSTYLE
1002
{
1070
144
1040
1.0
1070
40
1040
1.0
1002
}
  0
DIMENSION
  5
B4
100
AcDbEntity
  8
DIM
 62
256
370
-1
 48
1.0
  6
BYLAYER
100
AcDbDimension
 10
114.8307032369362162
 20
47.8593223021661132
 30
0.0
 11
135.3307032369362162
 21
48.9843223021661132
 31
0.0
 70
0
 71
8
 72
2
 74
0
 75
0
 41
1.0
 42
0.0
  1

  3
Standard
100
AcDbAlignedDimension
 13
114.8307032369362162
 23
38.3593223021660918
 33
0.0
 14
155.8307032369362162
 24
45.8593223021662197
 34
0.0
 50
0.0
100
AcDbRotatedDimension
1001
ACAD
1000
DSTYLE
1002
{
1070
144
1040
1.0
1070
40
1040
1.0
1002
}
  0
LINE
  5
B5
100
AcDbEntity
  8
0
 62
256
370
-1
 48
1.0
  6
BYLAYER
100
AcDbLine
 10
25.3307032369362162
 20
84.3593223021660918
 30
0.0
 11
97.3307032369362162
 21
84.3593223021660918
 31
0.0
  0
LINE
  5
B6
100
AcDbEntity
  8
0
 62
256
370
-1
 48
1.0
  6
BYLAYER
100
AcDbLine
 10
25.3307032369362162
 20
82.8593223021660918
 30
0.0
 11
97.3307032369362162
 21
82.8593223021660918
 31
0.0
  0
DIMENSION
  5
B7
100
AcDbEntity
  8
DIM
 62
256
370
-1
 48
1.0
  6
BYLAYER
100
AcDbDimension
 10
24.3307032369362233
 20
122.3593223021660776
 30
0.0
 11
23.2057032369362233
 21
103.3593223021660918
 31
0.0
 70
0
 71
8
 72
2
 74
0
 75
0
 41
1.0
 42
0.0
  1

  3
Standard
100
AcDbAlignedDimension
 13
25.3307032369362197
 23
122.3593223021660918
 33
0.0
 14
25.3307032369362197
 24
84.3593223021660918
 34
0.0
 50
90.0
100
AcDbRotatedDimension
1001
ACAD
1000
DSTYLE
1002
{
1070
144
1040
1.0
1070
40
1040
1.0
1002
}
  0
DIMENSION
  5
B8
100
AcDbEntity
  8
DIM
 62
256
370
-1
 48
1.0
  6
BYLAYER
100
AcDbDimension
 10
20.3307032369362304
 20
123.8593223021661061
 30
0.0
 11
19.2057032369362304
 21
103.3593223021660776
 31
0.0
 70
0
 71
8
 72
2
 74
0
 75
0
 41
1.0
 42
0.0
  1

  3
Standard
100
AcDbAlignedDimension
 13
25.3307032369362375
 23
123.8593223021660776
 33
0.0
 14
25.3307032369362126
 24
82.8593223021660776
 34
0.0
 50
90.0
100
AcDbRotatedDimension
1001
ACAD
1000
DSTYLE
1002
{
1070
144
1040
1.0
1070
40
1040
1.0
1002
}
  0
LINE
  5
B9
100
AcDbEntity
  8
0
 62
256
370
-1
 48
1.0
  6
BYLAYER
100
AcDbLine
 10
97.3307032369362162
 20
84.3593223021660918
 30
0.0
 11
97.3307032369362162
 21
82.8593223021660918
 31
0.0
  0
MTEXT
  5
BA
100
AcDbEntity
  8
0
 62
256
370
-1
 48
1.0
  6
BYLAYER
100
AcDbMText
 10
134.0
 20
80.0
 30
0.0
 40
2.5
 41
0.0
 71
1
 72
1
  1
BACK
  7
textstyle0
 50
0.0
 73
2
 44
1.0
  0
MTEXT
  5
BB
100
AcDbEntity
  8
0
 62
256
370
-1
 48
1.0
  6
BYLAYER
100
AcDbMText
 10
130.0
 20
128.0
 30
0.0
 40
2.5
 41
0.0
 71
1
 72
1
  1
SEATING
  7
textstyle1
 50
0.0
 73
2
 44
1.0
  0
DIMENSION
  5
BC
100
AcDbEntity
  8
DIM
 62
256
370
-1
 48
1.0
  6
BYLAYER
100
AcDbDimension
 10
178.0
 20
76.75
 30
0.0
 11
176.875
 21
74.25
 31
0.0
 70
0
 71
8
 72
2
 74
0
 75
0
 41
1.0
 42
0.0
  1

  3
Standard
100
AcDbAlignedDimension
 13
174.3307032369362162
 23
76.75
 33
0.0
 14
174.3307032369362162
 24
71.75
 34
0.0
 50
90.0
100
AcDbRotatedDimension
1001
ACAD
1000
DSTYLE
1002
{
1070
144
1040
1.0
1070
40
1040
1.0
1002
}
  0
DIMENSION
  5
BD
100
AcDbEntity
  8
DIM
 62
256
370
-1
 48
1.0
  6
BYLAYER
100
AcDbDimension
 10
182.0
 20
76.75
 30
0.0
 11
180.875
 21
71.75
 31
0.0
 70
0
 71
8
 72
2
 74
0
 75
0
 41
1.0
 42
0.0
  1

  3
Standard
100
AcDbAlignedDimension
 13
174.7057032369362162
 23
76.75
 33
0.0
 14
174.3307032369362162
 24
66.75
 34
0.0
 50
90.0
100
AcDbRotatedDimension
1001
ACAD
1000
DSTYLE
1002
{
1070
144
1040
1.0
1070
40
1040
1.0
1002
}
  0
DIMENSION
  5
BE
100
AcDbEntity
  8
DIM
 62
256
370
-1
 48
1.0
  6
BYLAYER
100
AcDbDimension
 10
178.0
 20
63.25
 30
0.0
 11
180.0
 21
62.0
 31
0.0
 70
128
 71
8
 72
2
 74
0
 75
0
 41
1.0
 42
0.0
  1

  3
Standard
100
AcDbAlignedDimension
 13
174.3307032369362162
 23
63.25
 33
0.0
 14
174.3307032369362162
 24
61.75
 34
0.0
 50
90.0
100
AcDbRotatedDimension
1001
ACAD
1000
DSTYLE
1002
{
1070
279
1070
2
1070
144
1040
1.0
1070
40
1040
1.0
1002
}
  0
DIMENSION
  5
BF
100
AcDbEntity
  8
DIM
 62
256
370
-1
 48
1.0
  6
BYLAYER
100
AcDbDimension
 10
25.3307032369362162
 20
79.0
 30
0.0
 11
34.1432032369362162
 21
80.125
 31
0.0
 70
0
 71
8
 72
2
 74
0
 75
0
 41
1.0
 42
0.0
  1

  3
Standard
100
AcDbAlignedDimension
 13
25.3307032369362162
 23
82.8593223021660918
 33
0.0
 14
42.9557032369362162
 24
84.3593223021660918
 34
0.0
 50
0.0
100
AcDbRotatedDimension
1001
ACAD
1000
DSTYLE
1002
{
1070
144
1040
1.0
1070
40
1040
1.0
1002
}
  0
DIMENSION
  5
C0
100
AcDbEntity
  8
DIM
 62
256
370
-1
 48
1.0
  6
BYLAYER
100
AcDbDimension
 10
25.3307032369362162
 20
75.0
 30
0.0
 11
42.9557032369362162
 21
76.125
 31
0.0
 70
0
 71
8
 72
2
 74
0
 75
0
 41
1.0
 42
0.0
  1

  3
Standard
100
AcDbAlignedDimension
 13
25.3307032369362162
 23
82.8593223021660918
 33
0.0
 14
60.5807032369362091
 24
84.3593223021660918
 34
0.0
 50
0.0
100
AcDbRotatedDimension
1001
ACAD
1000
DSTYLE
1002
{
1070
144
1040
1.0
1070
40
1040
1.0
1002
}
  0
DIMENSION
  5
C1
100
AcDbEntity
  8
DIM
 62
256
370
-1
 48
1.0
  6
BYLAYER
100
AcDbDimension
 10
97.3307032369362162
 20
79.0
 30
0.0
 11
88.5182032369362162
 21
80.125
 31
0.0
 70
0
 71
8
 72
2
 74
0
 75
0
 41
1.0
 42
0.0
  1

  3
Standard
100
AcDbAlignedDimension
 13
97.3307032369362162
 23
82.8593223021660918
 33
0.0
 14
79.7057032369362162
 24
84.3593223021660918
 34
0.0
 50
0.0
100
AcDbRotatedDimension
1001
ACAD
1000
DSTYLE
1002
{
1070
144
1040
1.0
1070
40
1040
1.0
1002
}
  0
DIMENSION
  5
C2
100
AcDbEntity
  8
DIM
 62
256
370
-1
 48
1.0
  6
BYLAYER
100
AcDbDimension
 10
97.3307032369362162
 20
75.0
 30
0.0
 11
79.7057032369362162
 21
76.125
 31
0.0
 70
0
 71
8
 72
2
 74
0
 75
0
 41
1.0
 42
0.0
  1

  3
Standard
100
AcDbAlignedDimension
 13
97.3307032369362162
 23
82.8593223021660918
 33
0.0
 14
62.0807032369362091
 24
84.3593223021660918
 34
0.0
 50
0.0
100
AcDbRotatedDimension
1001
ACAD
1000
DSTYLE
1002
{
1070
144
1040
1.0
1070
40
1040
1.0
1002
}
  0
LINE
  5
C3
100
AcDbEntity
  8
HIDEME
 62
256
370
-1
 48
1.0
  6
BYLAYER
100
AcDbLine
 10
62.8307032369362162
 20
-7.6406776978339215
 30
0.0
 11
62.8307032369362162
 21
-43.1406776978339153
 31
0.0
  0
DIMENSION
  5
C4
100
AcDbEntity
  8
HIDEME
 62
256
370
-1
 48
1.0
  6
BYLAYER
100
AcDbDimension
 10
62.8307032369362162
 20
-10.0
 30
0.0
 11
98.0807032369362162
 21
-8.875
 31
0.0
 70
0
 71
8
 72
2
 74
0
 75
0
 41
1.0
 42
0.0
  1

  3
Standard
100
AcDbAlignedDimension
 13
62.8307032369362162
 23
-23.6406776978339188
 33
0.0
 14
133.3307032369362162
 24
-23.6406776978339366
 34
0.0
 50
0.0
100
AcDbRotatedDimension
1001
ACAD
1000
DSTYLE
1002
{
1070
144
1040
1.0
1070
40
1040
1.0
1002
}
  0
LINE
  5
C5
100
AcDbEntity
  8
HIDEME
 62
256
370
-1
 48
1.0
  6
BYLAYER
100
AcDbLine
 10
100.8307032369362162
 20
-23.2656776978339188
 30
0.0
 11
100.8307032369362162
 21
-9.25
 31
0.0
  0
DIMENSION
  5
C6
100
AcDbEntity
  8
DIM
 62
256
370
-1
 48
1.0
  6
BYLAYER
100
AcDbDimension
 10
178.6926700668664125
 20
123.8593223021660918
 30
0.0
 11
177.5676700668664125
 21
117.6093223021660918
 31
0.0
 70
0
 71
8
 72
2
 74
0
 75
0
 41
1.0
 42
0.0
  1

  3
Standard
100
AcDbAlignedDimension
 13
174.3307032369362162
 23
123.8593223021660918
 33
0.0
 14
174.3307032369362162
 24
111.3593223021660918
 34
0.0
 50
90.0
100
AcDbRotatedDimension
1001
ACAD
1000
DSTYLE
1002
{
1070
144
1040
1.0
1070
40
1040
1.0
1002
}
  0
DIMENSION
  5
C7
100
AcDbEntity
  8
DIM
 62
256
370
-1
 48
1.0
  6
BYLAYER
100
AcDbDimension
 10
184.0
 20
123.8593223021660918
 30
0.0
 11
182.875
 21
111.3593223021660918
 31
0.0
 70
0
 71
8
 72
2
 74
0
 75
0
 41
1.0
 42
0.0
  1

  3
Standard
100
AcDbAlignedDimension
 13
174.7057032369362162
 23
123.8593223021660918
 33
0.0
 14
174.3307032369362162
 24
98.8593223021660918
 34
0.0
 50
90.0
100
AcDbRotatedDimension
1001
ACAD
1000
DSTYLE
1002
{
1070
144
1040
1.0
1070
40
1040
1.0
1002
}
  0
LINE
  5
C8
100
AcDbEntity
  8
0
 62
256
370
-1
 48
1.0
  6
BYLAYER
100
AcDbLine
 10
116.3307032369362162
 20
12.8593223021660865
 30
0.0
 11
119.8307032369362162
 21
12.8593223021660865
 31
0.0
  0
LINE
  5
C9
100
AcDbEntity
  8
0
 62
256
370
-1
 48
1.0
  6
BYLAYER
100
AcDbLine
 10
119.8307032369362162
 20
12.8593223021660865
 30
0.0
 11
119.8307032369362162
 21
17.3593223021660918
 31
0.0
  0
DIMENSION
  5
CA
100
AcDbEntity
  8
DIM
 62
256
370
-1
 48
1.0
  6
BYLAYER
100
AcDbDimension
 10
122.5379333853324511
 20
17.3593223021660918
 30
0.0
 11
122.0
 21
10.0
 31
0.0
 70
128
 71
8
 72
2
 74
0
 75
0
 41
1.0
 42
0.0
  1

  3
Standard
100
AcDbAlignedDimension
 13
119.8307032369362162
 23
17.3593223021660918
 33
0.0
 14
119.8307032369362304
 24
12.8593223021660865
 34
0.0
 50
90.0
100
AcDbRotatedDimension
1001
ACAD
1000
DSTYLE
1002
{
1070
279
1070
2
1070
144
1040
1.0
1070
40
1040
1.0
1002
}
  0
LINE
  5
CB
100
AcDbEntity
  8
0
 62
256
370
-1
 48
1.0
  6
BYLAYER
100
AcDbLine
 10
97.3307032369362162
 20
12.8593223021660918
 30
0.0
 11
95.8307032369362162
 21
12.8593223021660918
 31
0.0
  0
LINE
  5
CC
100
AcDbEntity
  8
0
 62
256
370
-1
 48
1.0
  6
BYLAYER
100
AcDbLine
 10
95.8307032369362162
 20
12.8593223021660918
 30
0.0
 11
95.8307032369362304
 21
17.3593223021660918
 31
0.0
  0
LINE
  5
CD
100
AcDbEntity
  8
0
 62
256
370
-1
 48
1.0
  6
BYLAYER
100
AcDbLine
 10
25.3307032369362126
 20
12.8593223021660918
 30
0.0
 11
26.8307032369362126
 21
12.8593223021660918
 31
0.0
  0
LINE
  5
CE
100
AcDbEntity
  8
0
 62
256
370
-1
 48
1.0
  6
BYLAYER
100
AcDbLine
 10
26.8307032369362126
 20
12.8593223021660918
 30
0.0
 11
26.8307032369362162
 21
17.3593223021660918
 31
0.0
  0
LINE
  5
CF
100
AcDbEntity
  8
0
 62
256
370
-1
 48
1.0
  6
BYLAYER
100
AcDbLine
 10
154.3307032369362162
 20
12.8593223021660847
 30
0.0
 11
150.8307032369362162
 21
12.8593223021660847
 31
0.0
  0
LINE
  5
D0
100
AcDbEntity
  8
0
 62
256
370
-1
 48
1.0
  6
BYLAYER
100
AcDbLine
 10
150.8307032369362162
 20
12.8593223021660847
 30
0.0
 11
150.8307032369362162
 21
17.3593223021660918
 31
0.0
  0
ENDSEC
  0
SECTION
  2
OBJECTS
  0
DICTIONARY
  5
C
100
AcDbDictionary
280
0
281
1
  3
ACAD_GROUP
350
D
  3
ACAD_LAYOUT
350
1A
  3
ACAD_MLINESTYLE
350
17
  3
ACAD_PLOTSETTINGS
350
19
  3
ACAD_PLOTSTYLENAME
350
E
  3
AcDbVariableDictionary
350
D1
  3
QCAD_OBJECTS
350
D2
  0
DICTIONARY
  5
D
100
AcDbDictionary
280
0
281
1
  0
ACDBDICTIONARYWDFLT
  5
E
100
AcDbDictionary
281
1
  3
Normal
350
F
100
AcDbDictionaryWithDefault
340
F
  0
ACDBPLACEHOLDER
  5
F
  0
DICTIONARY
  5
17
100
AcDbDictionary
280
0
281
1
  3
Standard
350
18
  0
MLINESTYLE
  5
18
100
AcDbMlineStyle
  2
STANDARD
 70
0
  3

 62
256
 51
90.0
 52
90.0
 71
2
 49
0.5
 62
256
  6
BYLAYER
 49
-0.5
 62
256
  6
BYLAYER
  0
DICTIONARY
  5
19
100
AcDbDictionary
280
0
281
1
  0
DICTIONARY
  5
1A
100
AcDbDictionary
281
1
  3
Layout1
350
1E
  3
Layout2
350
26
  3
Model
350
22
  0
LAYOUT
  5
1E
100
AcDbPlotSettings
  1

  2
none_device
  4

  6

 40
0.0
 41
0.0
 42
0.0
 43
0.0
 44
0.0
 45
0.0
 46
0.0
 47
0.0
 48
0.0
 49
0.0
140
0.0
141
0.0
142
1.0
143
1.0
 70
688
 72
0
 73
0
 74
5
  7

 75
16
147
1.0
148
0.0
149
0.0
100
AcDbLayout
  1
Layout1
 70
1
 71
1
 10
0.0
 20
0.0
 11
420.0
 21
297.0
 12
0.0
 22
0.0
 32
0.0
 14
100000000000000000000.0
 24
100000000000000000000.0
 34
100000000000000000000.0
 15
-100000000000000000000.0
 25
-100000000000000000000.0
 35
-100000000000000000000.0
146
0.0
 13
0.0
 23
0.0
 33
0.0
 16
1.0
 26
0.0
 36
0.0
 17
0.0
 27
1.0
 37
0.0
 76
0
330
1B
  0
LAYOUT
  5
22
100
AcDbPlotSettings
  1

  2
none_device
  4

  6

 40
0.0
 41
0.0
 42
0.0
 43
0.0
 44
0.0
 45
0.0
 46
0.0
 47
0.0
 48
0.0
 49
0.0
140
0.0
141
0.0
142
1.0
143
1.0
 70
1712
 72
0
 73
0
 74
0
  7

 75
0
147
1.0
148
0.0
149
0.0
100
AcDbLayout
  1
Model
 70
1
 71
0
 10
0.0
 20
0.0
 11
12.0
 21
9.0
 12
0.0
 22
0.0
 32
0.0
 14
0.0
 24
0.0
 34
0.0
 15
0.0
 25
0.0
 35
0.0
146
0.0
 13
0.0
 23
0.0
 33
0.0
 16
1.0
 26
0.0
 36
0.0
 17
0.0
 27
1.0
 37
0.0
 76
0
330
1F
  0
LAYOUT
  5
26
100
AcDbPlotSettings
  1

  2
none_device
  4

  6

 40
0.0
 41
0.0
 42
0.0
 43
0.0
 44
0.0
 45
0.0
 46
0.0
 47
0.0
 48
0.0
 49
0.0
140
0.0
141
0.0
142
1.0
143
1.0
 70
688
 72
0
 73
0
 74
5
  7

 75
16
147
1.0
148
0.0
149
0.0
100
AcDbLayout
  1
Layout2
 70
1
 71
2
 10
0.0
 20
0.0
 11
12.0
 21
9.0
 12
0.0
 22
0.0
 32
0.0
 14
0.0
 24
0.0
 34
0.0
 15
0.0
 25
0.0
 35
0.0
146
0.0
 13
0.0
 23
0.0
 33
0.0
 16
1.0
 26
0.0
 36
0.0
 17
0.0
 27
1.0
 37
0.0
 76
0
330
23
  0
DICTIONARY
  5
D1
100
AcDbDictionary
281
1
  3
DIMASSOC
350
D4
  3
HIDETEXT
350
D3
  0
DICTIONARYVAR
  5
D3
100
DictionaryVariables
280
0
  1
2
  0
DICTIONARYVAR
  5
D4
100
DictionaryVariables
280
0
  1
1
  0
DICTIONARY
  5
D2
100
AcDbDictionary
281
1
  3
ColorSettings/BackgroundColor
350
D5
  3
ColorSettings/ColorMode
350
D6
  3
DimensionSettings/AngularFormat
350
D7
  3
DimensionSettings/AngularPrecision
350
D8
  3
DimensionSettings/DecimalPoint
350
D9
  3
DimensionSettings/DimensionFont
350
DA
  3
DimensionSettings/DimensionTextColor
350
DB
  3
DimensionSettings/KeepProportions
350
DC
  3
DimensionSettings/LinearFormat
350
DD
  3
DimensionSettings/LinearPrecision
350
DE
  3
Grid/DisplayGrid00
350
DF
  3
Grid/DisplayGrid01
350
E0
  3
Grid/DisplayGrid02
350
E1
  3
Grid/DisplayGrid03
350
E2
  3
Grid/GridSpacingX00
350
E3
  3
Grid/GridSpacingX01
350
E4
  3
Grid/GridSpacingX02
350
E5
  3
Grid/GridSpacingX03
350
E6
  3
Grid/GridSpacingY00
350
E7
  3
Grid/GridSpacingY01
350
E8
  3
Grid/GridSpacingY02
350
E9
  3
Grid/GridSpacingY03
350
EA
  3
Grid/IsometricGrid00
350
EB
  3
Grid/IsometricGrid01
350
EC
  3
Grid/IsometricGrid02
350
ED
  3
Grid/IsometricGrid03
350
EE
  3
Grid/IsometricProjection00
350
EF
  3
Grid/IsometricProjection01
350
F0
  3
Grid/IsometricProjection02
350
F1
  3
Grid/IsometricProjection03
350
F2
  3
Grid/MetaGridSpacingX00
350
F3
  3
Grid/MetaGridSpacingX01
350
F4
  3
Grid/MetaGridSpacingX02
350
F5
  3
Grid/MetaGridSpacingX03
350
F6
  3
Grid/MetaGridSpacingY00
350
F7
  3
Grid/MetaGridSpacingY01
350
F8
  3
Grid/MetaGridSpacingY02
350
F9
  3
Grid/MetaGridSpacingY03
350
FA
  3
MultiPageSettings/Columns
350
FB
  3
MultiPageSettings/GlueMarginsBottom
350
FC
  3
MultiPageSettings/GlueMarginsLeft
350
FD
  3
MultiPageSettings/GlueMarginsRight
350
FE
  3
MultiPageSettings/GlueMarginsTop
350
FF
  3
MultiPageSettings/PrintCropMarks
350
100
  3
MultiPageSettings/Rows
350
101
  3
PageSettings/OffsetX
350
102
  3
PageSettings/OffsetY
350
103
  3
PageSettings/PageOrientation
350
104
  3
PageSettings/PaperHeight
350
105
  3
PageSettings/PaperWidth
350
106
  3
PageSettings/Scale
350
107
  3
PageSettings/ShowPaperBorders
350
108
  3
PageTagSettings/EnablePageTags
350
109
  3
PageTagSettings/TagAlignment
350
10A
  3
PageTagSettings/TagFont
350
10B
  3
PageTagSettings/TagPosition
350
10C
  3
QCADVersion
350
10D
  3
UnitSettings/PaperUnit
350
10E
  3
ViewportCenter
350
10F
  3
ViewportHeight
350
110
  3
ViewportWidth
350
111
  0
XRECORD
  5
D5
330
D2
100
AcDbXrecord
280
1
1000
White
  0
XRECORD
  5
D6
330
D2
100
AcDbXrecord
280
1
1000
BlackWhite
  0
XRECORD
  5
D7
330
D2
100
AcDbXrecord
280
1
 90
0
  0
XRECORD
  5
D8
330
D2
100
AcDbXrecord
280
1
 90
0
  0
XRECORD
  5
D9
330
D2
100
AcDbXrecord
280
1
 90
46
  0
XRECORD
  5
DA
330
D2
100
AcDbXrecord
280
1
1000
Al Bayan
  0
XRECORD
  5
DB
330
D2
100
AcDbXrecord
280
1
1000
By Layer
  0
XRECORD
  5
DC
330
D2
100
AcDbXrecord
280
1
290
1
  0
XRECORD
  5
DD
330
D2
100
AcDbXrecord
280
1
 90
5
  0
XRECORD
  5
DE
330
D2
100
AcDbXrecord
280
1
 90
4
  0
XRECORD
  5
DF
330
D2
100
AcDbXrecord
280
1
290
0
  0
XRECORD
  5
E0
330
D2
100
AcDbXrecord
280
1
290
1
  0
XRECORD
  5
E1
330
D2
100
AcDbXrecord
280
1
290
1
  0
XRECORD
  5
E2
330
D2
100
AcDbXrecord
280
1
290
1
  0
XRECORD
  5
E3
330
D2
100
AcDbXrecord
280
1
1000
auto
  0
XRECORD
  5
E4
330
D2
100
AcDbXrecord
280
1
1000
auto
  0
XRECORD
  5
E5
330
D2
100
AcDbXrecord
280
1
1000
auto
  0
XRECORD
  5
E6
330
D2
100
AcDbXrecord
280
1
1000
auto
  0
XRECORD
  5
E7
330
D2
100
AcDbXrecord
280
1
1000
auto
  0
XRECORD
  5
E8
330
D2
100
AcDbXrecord
280
1
1000
auto
  0
XRECORD
  5
E9
330
D2
100
AcDbXrecord
280
1
1000
auto
  0
XRECORD
  5
EA
330
D2
100
AcDbXrecord
280
1
1000
auto
  0
XRECORD
  5
EB
330
D2
100
AcDbXrecord
280
1
290
0
  0
XRECORD
  5
EC
330
D2
100
AcDbXrecord
280
1
290
0
  0
XRECORD
  5
ED
330
D2
100
AcDbXrecord
280
1
290
0
  0
XRECORD
  5
EE
330
D2
100
AcDbXrecord
280
1
290
0
  0
XRECORD
  5
EF
330
D2
100
AcDbXrecord
280
1
 90
65537
  0
XRECORD
  5
F0
330
D2
100
AcDbXrecord
280
1
 90
65537
  0
XRECORD
  5
F1
330
D2
100
AcDbXrecord
280
1
 90
65537
  0
XRECORD
  5
F2
330
D2
100
AcDbXrecord
280
1
 90
65537
  0
XRECORD
  5
F3
330
D2
100
AcDbXrecord
280
1
1000
auto
  0
XRECORD
  5
F4
330
D2
100
AcDbXrecord
280
1
1000
auto
  0
XRECORD
  5
F5
330
D2
100
AcDbXrecord
280
1
1000
auto
  0
XRECORD
  5
F6
330
D2
100
AcDbXrecord
280
1
1000
auto
  0
XRECORD
  5
F7
330
D2
100
AcDbXrecord
280
1
1000
auto
  0
XRECORD
  5
F8
330
D2
100
AcDbXrecord
280
1
1000
auto
  0
XRECORD
  5
F9
330
D2
100
AcDbXrecord
280
1
1000
auto
  0
XRECORD
  5
FA
330
D2
100
AcDbXrecord
280
1
1000
auto
  0
XRECORD
  5
FB
330
D2
100
AcDbXrecord
280
1
 90
1
  0
XRECORD
  5
FC
330
D2
100
AcDbXrecord
280
1
 40
0.5
  0
XRECORD
  5
FD
330
D2
100
AcDbXrecord
280
1
 40
0.5
  0
XRECORD
  5
FE
330
D2
100
AcDbXrecord
280
1
 40
0.5
  0
XRECORD
  5
FF
330
D2
100
AcDbXrecord
280
1
 40
0.5
  0
XRECORD
  5
100
330
D2
100
AcDbXrecord
280
1
290
0
  0
XRECORD
  5
101
330
D2
100
AcDbXrecord
280
1
 90
1
  0
XRECORD
  5
102
330
D2
100
AcDbXrecord
280
1
 40
1.5039301037596573
  0
XRECORD
  5
103
330
D2
100
AcDbXrecord
280
1
 40
-4.3688187078017862
  0
XRECORD
  5
104
330
D2
100
AcDbXrecord
280
1
1000
Landscape
  0
XRECORD
  5
105
330
D2
100
AcDbXrecord
280
1
 40
11.6929133858267722
  0
XRECORD
  5
106
330
D2
100
AcDbXrecord
280
1
 40
8.2677165354330704
  0
XRECORD
  5
107
330
D2
100
AcDbXrecord
280
1
1000
0.0587
  0
XRECORD
  5
108
330
D2
100
AcDbXrecord
280
1
290
1
  0
XRECORD
  5
109
330
D2
100
AcDbXrecord
280
1
290
0
  0
XRECORD
  5
10A
330
D2
100
AcDbXrecord
280
1
1000
Inside
  0
XRECORD
  5
10B
330
D2
100
AcDbXrecord
280
1
1000
Arial,10,-1,5,50,0,0,0,0,0
  0
XRECORD
  5
10C
330
D2
100
AcDbXrecord
280
1
1000
TopLeft
  0
XRECORD
  5
10D
330
D2
100
AcDbXrecord
280
1
1000
3.25.0
  0
XRECORD
  5
10E
330
D2
100
AcDbXrecord
280
1
 90
1
  0
XRECORD
  5
110
330
D2
100
AcDbXrecord
280
1
 40
144.9532850739726655
  0
XRECORD
  5
111
330
D2
100
AcDbXrecord
280
1
 40
303.457443823415872
  0
ENDSEC
  0
EOF
